<svg id="visual" viewBox="0 0 3840 2160" width="3840" height="2160" xmlns="http://www.w3.org/2000/svg" xmlns:xlink="http://www.w3.org/1999/xlink" version="1.1"><rect x="0" y="0" width="3840" height="2160" fill="#1A1C22"></rect><g transform="translate(1959.7824517344566 1107.5100293117819)"><path d="M398.1 -559.4C478.8 -489.3 481.4 -323.3 492 -184.9C502.5 -46.5 520.9 64.4 488.6 157.2C456.3 250 373.3 324.8 283.5 405.6C193.6 486.4 96.8 573.2 18.6 547.6C-59.5 521.9 -119 383.8 -169.9 290.4C-220.8 196.9 -263 148 -347.6 70C-432.1 -8.1 -558.9 -115.5 -582.3 -234.2C-605.7 -352.9 -525.6 -483.1 -411.3 -542.3C-297 -601.5 -148.5 -589.7 5.1 -596.8C158.7 -603.8 317.4 -629.5 398.1 -559.4" fill="#580ef6"></path></g></svg>