<svg id="visual" viewBox="0 0 3840 2160" width="3840" height="2160" xmlns="http://www.w3.org/2000/svg" xmlns:xlink="http://www.w3.org/1999/xlink" version="1.1"><rect x="0" y="0" width="3840" height="2160" fill="#F7F7F7"></rect><path d="M0 195L71.2 187.2C142.3 179.3 284.7 163.7 426.8 186.8C569 210 711 272 853.2 293.2C995.3 314.3 1137.7 294.7 1280 278.5C1422.3 262.3 1564.7 249.7 1706.8 255.7C1849 261.7 1991 286.3 2133.2 265.7C2275.3 245 2417.7 179 2560 170.5C2702.3 162 2844.7 211 2986.8 243.3C3129 275.7 3271 291.3 3413.2 304.7C3555.3 318 3697.7 329 3768.8 334.5L3840 340L3840 0L3768.8 0C3697.7 0 3555.3 0 3413.2 0C3271 0 3129 0 2986.8 0C2844.7 0 2702.3 0 2560 0C2417.7 0 2275.3 0 2133.2 0C1991 0 1849 0 1706.8 0C1564.7 0 1422.3 0 1280 0C1137.7 0 995.3 0 853.2 0C711 0 569 0 426.8 0C284.7 0 142.3 0 71.2 0L0 0Z" fill="#1A1C22" stroke-linecap="round" stroke-linejoin="miter"></path></svg>