<svg id="visual" viewBox="0 0 3840 2160" width="3840" height="2160" xmlns="http://www.w3.org/2000/svg" xmlns:xlink="http://www.w3.org/1999/xlink" version="1.1"><rect x="0" y="0" width="3840" height="2160" fill="#F7F7F7"></rect><path d="M0 1741L106.7 1775.8C213.3 1810.7 426.7 1880.3 640 1901.3C853.3 1922.3 1066.7 1894.7 1280 1860C1493.3 1825.3 1706.7 1783.7 1920 1794C2133.3 1804.3 2346.7 1866.7 2560 1870.8C2773.3 1875 2986.7 1821 3200 1818.3C3413.3 1815.7 3626.7 1864.3 3733.3 1888.7L3840 1913L3840 2161L3733.3 2161C3626.7 2161 3413.3 2161 3200 2161C2986.7 2161 2773.3 2161 2560 2161C2346.7 2161 2133.3 2161 1920 2161C1706.7 2161 1493.3 2161 1280 2161C1066.7 2161 853.3 2161 640 2161C426.7 2161 213.3 2161 106.7 2161L0 2161Z" fill="#1A1C22" stroke-linecap="round" stroke-linejoin="miter"></path></svg>